<svg xmlns="http://www.w3.org/2000/svg" width="353.688" height="106.712" viewBox="0 0 331.58236 100.04282"><defs><clipPath id="b"><path d="M0 0h1280v6500H0V0z"/></clipPath><clipPath id="a"><path d="M0 0h1280v6500H0V0z"/></clipPath></defs><path d="M26.356 74.938l-21.6-19.177v22.254L26.233 96.5 73.38 55.725l.015-21.598-47.038 40.811z" fill="#5eccb5"/><g clip-path="url(#a)" transform="matrix(1.25 0 0 -1.25 -83.3 8038.953)"><path d="M91.777 6405.086l-4.042-3.498-4.063 3.509h.004a6.39 6.39 0 1 0 8.101-.011m-4.043 23.242c-10.084 0-18.26-8.176-18.26-18.261 0-5.681 2.596-10.755 6.665-14.105h-.014l11.613-10.026 11.55 9.994c4.092 3.349 6.707 8.437 6.707 14.137 0 10.085-8.175 18.26-18.26 18.26" fill="#ff630f"/></g><path d="M136.533 36.945L122.901 55.58V13.7h-16.38v70.618h16.576L123 74.511l6.865-7.553 9.22 17.36h17.85l-17.458-27.855 17.753-19.518h-20.697z" fill="#ff630f"/><g clip-path="url(#b)" transform="matrix(1.25 0 0 -1.25 -83.3 8038.953)"><path d="M289.847 6375.715l-.02.077c-1.48-1.247-3.812-2.105-6.15-2.117-2.536.023-3.692 1.207-3.692 4.39v13.655h11.927v9.886h-11.927v10.985l-.122-.026v.026l-12.948-2.825v-8.072c-2.512.07-6.948 0-9.12-1.192 0 0-2.341-.98-3.656-3.967 0 0-1.274-2.667-1.631-4.801l-.016.3-.863 9.573h-12.32v-37.9h13.576v20.148c.062.613.922 7.303 8.685 7.663l5.345.017v-15.508c0-9.258 6.12-12.79 13.419-12.79h.122c4.864 0 8.943.863 12.083 2.275l-2.59 10.28c-.032-.027-.07-.051-.102-.077M316.517 6387.482c-7.377 1.256-10.044.786-10.044 2.904 0 1.884 1.884 2.59 5.962 2.59 3.846 0 7.848-1.02 10.123-2.983l5.335 7.533c-3.294 2.981-9.258 4.708-15.928 4.708-12.868 0-17.105-6.199-17.105-13.024 0-7.063 4.237-9.73 13.732-11.144 6.669-1.099 8.787-.784 8.787-2.982 0-1.96-2.04-2.667-6.356-2.667-4.707 0-9.651 1.962-11.77 4.63l-5.648-8.396c3.53-3.14 10.044-5.572 17.576-5.572 12.24 0 17.89 4.71 17.89 12.946 0 8.318-5.886 10.281-12.554 11.457M233.702 6401.606h-13.887v-25.58c-1.256-1.412-3.06-2.274-5.57-2.274-4.16 0-5.808 1.804-5.808 6.198v21.656H194.47v-22.362c0-12.005 7.297-16.085 15.458-16.085 4.786 0 8.945 2.431 11.063 5.571.236-1.728.706-3.689 1.021-5.022h12.553c-.39 1.803-.863 4.943-.863 10.592v27.306z" fill="#ff630f"/></g></svg>