<?xml version="1.0" encoding="utf-8"?>
<!-- Svg Vector Icons : http://www.onlinewebfonts.com/icon -->
<!DOCTYPE svg PUBLIC "-//W3C//DTD SVG 1.1//EN" "http://www.w3.org/Graphics/SVG/1.1/DTD/svg11.dtd">
<svg version="1.1" xmlns="http://www.w3.org/2000/svg" xmlns:xlink="http://www.w3.org/1999/xlink" x="0px" y="0px" viewBox="0 0 1000 1000" enable-background="new 0 0 1000 1000" xml:space="preserve">
<metadata> Svg Vector Icons : http://www.onlinewebfonts.com/icon </metadata>
<g><g fill="white" transform="translate(0.000000,511.000000) scale(0.100000,-0.100000)"><path d="M4851.1,4380.4c-48.4-53.7-51.1-107.5-51.1-803.5s2.7-749.8,51.1-803.5c34.9-37.6,83.3-56.4,150.5-56.4c67.2,0,115.6,18.8,150.5,56.4c48.4,53.7,51.1,107.5,51.1,803.5s-2.7,749.8-51.1,803.5c-34.9,37.6-83.3,56.4-150.5,56.4C4934.4,4436.8,4886,4418,4851.1,4380.4z"/><path d="M1763.2,3275.8c-80.6-43-120.9-104.8-120.9-185.4c0-56.4,112.9-209.6,473-636.9c258-311.7,497.2-569.7,526.7-577.8c67.2-18.8,180,21.5,225.7,83.3c86,112.9,53.8,172-432.7,752.5c-408.5,489.1-518.7,599.3-604.7,596.6C1822.3,3305.4,1792.8,3291.9,1763.2,3275.8z"/><path d="M8086.8,3289.2c-24.2-5.4-258-266.1-518.7-575.1c-360.1-432.7-470.3-580.5-470.3-636.9c2.7-155.9,153.2-247.2,292.9-172c118.2,64.5,970.2,1093.8,970.2,1174.4c0,99.4-26.9,147.8-110.2,188.1C8172.8,3308.1,8164.7,3310.8,8086.8,3289.2z"/><path d="M4528.6,2114.8C3394.5,1897.2,2545.2,1104.4,2260.4-10.9c-75.2-287.6-96.7-790.1-45.7-1083l37.6-220.4l-69.9-16.1c-292.9-64.5-690.7-188.1-733.7-231.1c-75.2-75.2-64.5-220.4,24.2-290.2c86-67.2,75.2-67.2,593.9,64.5c448.8,115.6,980.9,209.6,1564.1,274.1c588.5,67.2,2150,69.9,2735.8,2.7c577.8-64.5,1120.7-161.3,1569.5-276.8c518.7-131.7,507.9-131.7,593.9-64.5c88.7,69.9,99.5,215,24.2,290.2c-43,43-435.4,163.9-739,233.8c-51.1,10.8-72.6,29.6-64.5,51.1c45.7,118.2,77.9,513.3,64.5,765.9C7742.8,712,6888.2,1752,5700.3,2063.8C5383.2,2147.1,4824.2,2171.3,4528.6,2114.8z M5587.4,1666c228.4-56.4,580.5-217.7,779.4-352.1C7073.6,832.9,7495.5-80.8,7396.1-911.2c-40.3-311.7-45.7-327.9-134.4-311.7c-1118,233.8-3402.3,233.8-4520.3,0c-88.7-16.1-94.1,0-134.4,311.7c-83.3,704.1,198.9,1467.3,731,1978C3945.4,1641.8,4792,1870.3,5587.4,1666z"/><path d="M217.9,343.8C70.1,271.2,59.4,80.4,196.4-5.6c67.2-43,1128.7-233.8,1287.3-233.8c120.9,0,185.4,67.2,185.4,196.2c0,161.3-56.4,182.8-714.9,298.3C629.1,311.6,346.9,359.9,325.4,368C303.9,373.4,255.5,362.6,217.9,343.8z"/><path d="M9067.7,260.5C8377,136.9,8334,118.1,8334-51.3c0-129,67.2-188.1,204.2-188.1c56.4,2.7,362.8,48.4,677.2,104.8C9675.1-53.9,9801.4-21.7,9844.4,24c107.5,107.5,51.1,298.3-99.4,335.9C9715.4,368,9411.7,322.3,9067.7,260.5z"/><path d="M4152.3-2002.3c-158.6-35-206.9-241.9-83.3-349.4c69.9-59.1,77.9-59.1,615.4-45.7c610,16.1,1440.5-21.5,2131.1-102.1c249.9-26.9,489.1-51.1,529.4-51.1c110.2,0,188.1,88.7,177.4,206.9c-16.1,180.1-80.6,201.6-983.6,292.9C6157.2-2010.4,4281.3-1972.8,4152.3-2002.3z"/><path d="M2918.8-2109.8c-346.7-45.7-424.6-86-438.1-233.8c-10.8-123.6,67.2-206.9,190.8-206.9c45.7,0,231.1,18.8,408.5,40.3c287.6,34.9,327.9,48.4,384.3,107.5c77.9,91.4,75.3,188.1-8.1,268.8C3381-2056.1,3351.5-2056.1,2918.8-2109.8z"/><path d="M3765.4-2953.7c-169.3-10.8-354.8-21.5-411.2-24.2c-120.9-2.7-233.8-99.4-233.8-201.6c0-37.6,26.9-99.4,61.8-139.7l61.8-72.6l755.2,32.3c413.9,18.8,980.9,29.6,1260.4,26.9l502.6-5.4l64.5,72.6c34.9,40.3,61.8,88.7,61.8,110.2c0,72.6-61.8,169.3-126.3,198.9C5689.6-2924.1,4302.8-2921.4,3765.4-2953.7z"/><path d="M6407.1-3020.9c-77.9-53.8-99.4-158.6-51.1-252.6c51.1-94.1,88.7-110.2,271.5-110.2c123.6,0,153.2,10.8,198.9,69.9c75.3,94.1,69.9,185.4-10.8,266.1c-51.1,53.8-91.4,67.2-206.9,67.2C6525.4-2980.6,6442.1-2996.7,6407.1-3020.9z"/><path d="M3996.5-3870.1c-88.7-69.9-96.8-212.3-16.1-292.9c43-43,88.7-53.8,252.6-53.8c185.4,0,204.2,5.4,255.3,69.9c75.3,94.1,69.9,185.4-10.7,266.1c-56.4,56.4-88.7,67.2-236.5,67.2C4106.7-3813.7,4052.9-3827.1,3996.5-3870.1z"/><path d="M5068.8-3880.9c-80.6-80.6-86-172-10.8-266.1l53.8-69.9h430c392.4,0,432.7,5.4,481.1,53.8c80.6,80.6,72.6,223-16.1,292.9c-64.5,51-107.5,56.4-473,56.4C5144-3813.7,5130.6-3816.4,5068.8-3880.9z"/></g></g>
</svg>
